<mxfile host="65bd71144e">
    <diagram name="Page-1" id="uDGwgzd54vXaql_GKUdG">
        <mxGraphModel dx="1135" dy="988" grid="1" gridSize="10" guides="1" tooltips="1" connect="1" arrows="1" fold="1" page="0" pageScale="1" pageWidth="850" pageHeight="1100" math="0" shadow="0">
            <root>
                <mxCell id="0"/>
                <mxCell id="1" parent="0"/>
                <mxCell id="JvDvLuI2Pq2bM0kV12Kc-3" style="rounded=0;orthogonalLoop=1;jettySize=auto;html=1;entryX=0;entryY=0.5;entryDx=0;entryDy=0;endArrow=none;endFill=0;" parent="1" source="JvDvLuI2Pq2bM0kV12Kc-1" target="JvDvLuI2Pq2bM0kV12Kc-2" edge="1">
                    <mxGeometry relative="1" as="geometry"/>
                </mxCell>
                <mxCell id="JvDvLuI2Pq2bM0kV12Kc-1" value="Vendedor" style="shape=umlActor;verticalLabelPosition=bottom;verticalAlign=top;html=1;strokeWidth=1;strokeColor=#ffffff;" parent="1" vertex="1">
                    <mxGeometry x="-30" y="-50" width="30" height="60" as="geometry"/>
                </mxCell>
                <mxCell id="JvDvLuI2Pq2bM0kV12Kc-21" value="&amp;lt;&amp;lt; include &amp;gt;&amp;gt;" style="rounded=0;orthogonalLoop=1;jettySize=auto;html=1;entryX=0;entryY=0.5;entryDx=0;entryDy=0;dashed=1;endArrow=open;endFill=0;" parent="1" source="JvDvLuI2Pq2bM0kV12Kc-2" target="JvDvLuI2Pq2bM0kV12Kc-20" edge="1">
                    <mxGeometry relative="1" as="geometry"/>
                </mxCell>
                <mxCell id="JvDvLuI2Pq2bM0kV12Kc-24" value="&amp;lt;&amp;lt; include &amp;gt;&amp;gt;" style="rounded=0;orthogonalLoop=1;jettySize=auto;html=1;entryX=0;entryY=0.5;entryDx=0;entryDy=0;dashed=1;endArrow=open;endFill=0;" parent="1" source="JvDvLuI2Pq2bM0kV12Kc-2" target="JvDvLuI2Pq2bM0kV12Kc-22" edge="1">
                    <mxGeometry relative="1" as="geometry"/>
                </mxCell>
                <mxCell id="JvDvLuI2Pq2bM0kV12Kc-25" value="&amp;lt;&amp;lt; include &amp;gt;&amp;gt;" style="rounded=0;orthogonalLoop=1;jettySize=auto;html=1;entryX=0;entryY=0.5;entryDx=0;entryDy=0;dashed=1;endArrow=open;endFill=0;" parent="1" source="JvDvLuI2Pq2bM0kV12Kc-2" target="JvDvLuI2Pq2bM0kV12Kc-23" edge="1">
                    <mxGeometry relative="1" as="geometry"/>
                </mxCell>
                <mxCell id="JvDvLuI2Pq2bM0kV12Kc-2" value="Efetuar Venda" style="ellipse;whiteSpace=wrap;html=1;" parent="1" vertex="1">
                    <mxGeometry x="220" y="-55" width="140" height="70" as="geometry"/>
                </mxCell>
                <mxCell id="JvDvLuI2Pq2bM0kV12Kc-7" style="rounded=0;orthogonalLoop=1;jettySize=auto;html=1;entryX=0;entryY=0.5;entryDx=0;entryDy=0;endArrow=none;endFill=0;" parent="1" source="JvDvLuI2Pq2bM0kV12Kc-4" target="JvDvLuI2Pq2bM0kV12Kc-6" edge="1">
                    <mxGeometry relative="1" as="geometry"/>
                </mxCell>
                <mxCell id="JvDvLuI2Pq2bM0kV12Kc-4" value="Ajudante Geral" style="shape=umlActor;verticalLabelPosition=bottom;verticalAlign=top;html=1;" parent="1" vertex="1">
                    <mxGeometry x="-30" y="114" width="30" height="60" as="geometry"/>
                </mxCell>
                <mxCell id="JvDvLuI2Pq2bM0kV12Kc-6" value="Receber Conta" style="ellipse;whiteSpace=wrap;html=1;" parent="1" vertex="1">
                    <mxGeometry x="220" y="111" width="140" height="70" as="geometry"/>
                </mxCell>
                <mxCell id="JvDvLuI2Pq2bM0kV12Kc-9" style="rounded=0;orthogonalLoop=1;jettySize=auto;html=1;endArrow=block;endFill=0;" parent="1" source="JvDvLuI2Pq2bM0kV12Kc-4" edge="1">
                    <mxGeometry relative="1" as="geometry">
                        <mxPoint x="-15" y="40" as="targetPoint"/>
                    </mxGeometry>
                </mxCell>
                <mxCell id="JvDvLuI2Pq2bM0kV12Kc-11" style="rounded=0;orthogonalLoop=1;jettySize=auto;html=1;exitX=0.5;exitY=0.5;exitDx=0;exitDy=0;exitPerimeter=0;endArrow=block;endFill=0;entryX=0.5;entryY=0;entryDx=0;entryDy=0;entryPerimeter=0;" parent="1" source="JvDvLuI2Pq2bM0kV12Kc-10" target="JvDvLuI2Pq2bM0kV12Kc-1" edge="1">
                    <mxGeometry relative="1" as="geometry">
                        <mxPoint x="-12" y="-60" as="targetPoint"/>
                    </mxGeometry>
                </mxCell>
                <mxCell id="JvDvLuI2Pq2bM0kV12Kc-13" style="rounded=0;orthogonalLoop=1;jettySize=auto;html=1;entryX=0;entryY=0.5;entryDx=0;entryDy=0;endArrow=none;endFill=0;" parent="1" source="JvDvLuI2Pq2bM0kV12Kc-10" target="JvDvLuI2Pq2bM0kV12Kc-12" edge="1">
                    <mxGeometry relative="1" as="geometry"/>
                </mxCell>
                <mxCell id="JvDvLuI2Pq2bM0kV12Kc-15" style="rounded=0;orthogonalLoop=1;jettySize=auto;html=1;entryX=0;entryY=0.5;entryDx=0;entryDy=0;endArrow=none;endFill=0;" parent="1" source="JvDvLuI2Pq2bM0kV12Kc-10" target="JvDvLuI2Pq2bM0kV12Kc-14" edge="1">
                    <mxGeometry relative="1" as="geometry"/>
                </mxCell>
                <mxCell id="JvDvLuI2Pq2bM0kV12Kc-10" value="Gerente" style="shape=umlActor;verticalLabelPosition=bottom;verticalAlign=top;html=1;" parent="1" vertex="1">
                    <mxGeometry x="-30" y="-190" width="30" height="60" as="geometry"/>
                </mxCell>
                <mxCell id="JvDvLuI2Pq2bM0kV12Kc-12" value="Manter Produto" style="ellipse;whiteSpace=wrap;html=1;" parent="1" vertex="1">
                    <mxGeometry x="220" y="-190" width="140" height="70" as="geometry"/>
                </mxCell>
                <mxCell id="JvDvLuI2Pq2bM0kV12Kc-14" value="Administrar Estoque" style="ellipse;whiteSpace=wrap;html=1;" parent="1" vertex="1">
                    <mxGeometry x="220" y="-320" width="140" height="70" as="geometry"/>
                </mxCell>
                <mxCell id="JvDvLuI2Pq2bM0kV12Kc-17" style="rounded=0;orthogonalLoop=1;jettySize=auto;html=1;entryX=1;entryY=0.5;entryDx=0;entryDy=0;endArrow=none;endFill=0;" parent="1" source="JvDvLuI2Pq2bM0kV12Kc-16" target="JvDvLuI2Pq2bM0kV12Kc-2" edge="1">
                    <mxGeometry relative="1" as="geometry"/>
                </mxCell>
                <mxCell id="JvDvLuI2Pq2bM0kV12Kc-18" style="rounded=0;orthogonalLoop=1;jettySize=auto;html=1;entryX=1;entryY=0.5;entryDx=0;entryDy=0;endArrow=none;endFill=0;" parent="1" source="JvDvLuI2Pq2bM0kV12Kc-16" target="JvDvLuI2Pq2bM0kV12Kc-6" edge="1">
                    <mxGeometry relative="1" as="geometry"/>
                </mxCell>
                <mxCell id="JvDvLuI2Pq2bM0kV12Kc-16" value="Cliente" style="shape=umlActor;verticalLabelPosition=bottom;verticalAlign=top;html=1;" parent="1" vertex="1">
                    <mxGeometry x="550" y="270" width="30" height="60" as="geometry"/>
                </mxCell>
                <mxCell id="JvDvLuI2Pq2bM0kV12Kc-20" value="Emitir CFe" style="ellipse;whiteSpace=wrap;html=1;" parent="1" vertex="1">
                    <mxGeometry x="478" y="-150" width="140" height="70" as="geometry"/>
                </mxCell>
                <mxCell id="JvDvLuI2Pq2bM0kV12Kc-22" value="Gerar Conta" style="ellipse;whiteSpace=wrap;html=1;" parent="1" vertex="1">
                    <mxGeometry x="478" y="-240" width="140" height="70" as="geometry"/>
                </mxCell>
                <mxCell id="JvDvLuI2Pq2bM0kV12Kc-23" value="Baixar Estoque" style="ellipse;whiteSpace=wrap;html=1;" parent="1" vertex="1">
                    <mxGeometry x="478" y="-330" width="140" height="70" as="geometry"/>
                </mxCell>
                <mxCell id="JvDvLuI2Pq2bM0kV12Kc-28" style="edgeStyle=orthogonalEdgeStyle;rounded=0;orthogonalLoop=1;jettySize=auto;html=1;entryX=1;entryY=0.5;entryDx=0;entryDy=0;endArrow=block;endFill=0;" parent="1" source="JvDvLuI2Pq2bM0kV12Kc-26" target="JvDvLuI2Pq2bM0kV12Kc-22" edge="1">
                    <mxGeometry relative="1" as="geometry"/>
                </mxCell>
                <mxCell id="JvDvLuI2Pq2bM0kV12Kc-26" value="Gerar Conta Vista" style="ellipse;whiteSpace=wrap;html=1;" parent="1" vertex="1">
                    <mxGeometry x="778" y="-330" width="140" height="70" as="geometry"/>
                </mxCell>
                <mxCell id="JvDvLuI2Pq2bM0kV12Kc-29" style="edgeStyle=orthogonalEdgeStyle;rounded=0;orthogonalLoop=1;jettySize=auto;html=1;entryX=1;entryY=0.5;entryDx=0;entryDy=0;endArrow=block;endFill=0;" parent="1" source="JvDvLuI2Pq2bM0kV12Kc-27" target="JvDvLuI2Pq2bM0kV12Kc-22" edge="1">
                    <mxGeometry relative="1" as="geometry"/>
                </mxCell>
                <mxCell id="JvDvLuI2Pq2bM0kV12Kc-27" value="&lt;span style=&quot;color: rgb(0, 0, 0); font-family: Helvetica; font-size: 12px; font-style: normal; font-variant-ligatures: normal; font-variant-caps: normal; font-weight: 400; letter-spacing: normal; orphans: 2; text-align: center; text-indent: 0px; text-transform: none; widows: 2; word-spacing: 0px; -webkit-text-stroke-width: 0px; background-color: rgb(255, 255, 255); text-decoration-thickness: initial; text-decoration-style: initial; text-decoration-color: initial; float: none; display: inline !important;&quot;&gt;Gerar Conta Prazo&lt;/span&gt;" style="ellipse;whiteSpace=wrap;html=1;" parent="1" vertex="1">
                    <mxGeometry x="778" y="-149" width="140" height="70" as="geometry"/>
                </mxCell>
                <mxCell id="JvDvLuI2Pq2bM0kV12Kc-31" value="&amp;lt;&amp;lt; extend &amp;gt;&amp;gt;" style="rounded=0;orthogonalLoop=1;jettySize=auto;html=1;entryX=1;entryY=0.5;entryDx=0;entryDy=0;dashed=1;endArrow=open;endFill=0;" parent="1" source="JvDvLuI2Pq2bM0kV12Kc-30" target="JvDvLuI2Pq2bM0kV12Kc-26" edge="1">
                    <mxGeometry relative="1" as="geometry"/>
                </mxCell>
                <mxCell id="JvDvLuI2Pq2bM0kV12Kc-30" value="Calcular Desconto" style="ellipse;whiteSpace=wrap;html=1;" parent="1" vertex="1">
                    <mxGeometry x="1035" y="-330" width="140" height="70" as="geometry"/>
                </mxCell>
                <mxCell id="JvDvLuI2Pq2bM0kV12Kc-37" style="edgeStyle=orthogonalEdgeStyle;rounded=0;orthogonalLoop=1;jettySize=auto;html=1;entryX=0.5;entryY=1;entryDx=0;entryDy=0;endArrow=block;endFill=0;" parent="1" source="JvDvLuI2Pq2bM0kV12Kc-32" target="JvDvLuI2Pq2bM0kV12Kc-27" edge="1">
                    <mxGeometry relative="1" as="geometry"/>
                </mxCell>
                <mxCell id="JvDvLuI2Pq2bM0kV12Kc-32" value="Gerar Conta P Cartão" style="ellipse;whiteSpace=wrap;html=1;" parent="1" vertex="1">
                    <mxGeometry x="638" y="41" width="140" height="70" as="geometry"/>
                </mxCell>
                <mxCell id="JvDvLuI2Pq2bM0kV12Kc-36" value="&amp;lt;&amp;lt; extend &amp;gt;&amp;gt;" style="rounded=0;orthogonalLoop=1;jettySize=auto;html=1;exitX=0.5;exitY=0;exitDx=0;exitDy=0;entryX=0.5;entryY=1;entryDx=0;entryDy=0;dashed=1;startArrow=open;startFill=0;endArrow=none;endFill=0;" parent="1" source="JvDvLuI2Pq2bM0kV12Kc-33" target="JvDvLuI2Pq2bM0kV12Kc-30" edge="1">
                    <mxGeometry relative="1" as="geometry"/>
                </mxCell>
                <mxCell id="JvDvLuI2Pq2bM0kV12Kc-38" style="edgeStyle=orthogonalEdgeStyle;rounded=0;orthogonalLoop=1;jettySize=auto;html=1;entryX=0.5;entryY=1;entryDx=0;entryDy=0;endArrow=block;endFill=0;" parent="1" source="JvDvLuI2Pq2bM0kV12Kc-33" target="JvDvLuI2Pq2bM0kV12Kc-27" edge="1">
                    <mxGeometry relative="1" as="geometry"/>
                </mxCell>
                <mxCell id="JvDvLuI2Pq2bM0kV12Kc-33" value="Gerar Conta P Boleto" style="ellipse;whiteSpace=wrap;html=1;" parent="1" vertex="1">
                    <mxGeometry x="918" y="41" width="140" height="70" as="geometry"/>
                </mxCell>
                <mxCell id="JvDvLuI2Pq2bM0kV12Kc-43" value="SCL" style="shape=umlFrame;whiteSpace=wrap;html=1;pointerEvents=0;" parent="1" vertex="1">
                    <mxGeometry x="80" y="-360" width="1120" height="600" as="geometry"/>
                </mxCell>
                <mxCell id="JvDvLuI2Pq2bM0kV12Kc-40" style="rounded=0;orthogonalLoop=1;jettySize=auto;html=1;endArrow=none;endFill=0;" parent="1" source="JvDvLuI2Pq2bM0kV12Kc-39" target="JvDvLuI2Pq2bM0kV12Kc-1" edge="1">
                    <mxGeometry relative="1" as="geometry">
                        <mxPoint x="-70" y="10" as="targetPoint"/>
                    </mxGeometry>
                </mxCell>
                <mxCell id="JvDvLuI2Pq2bM0kV12Kc-39" value="Efetuar Login" style="ellipse;whiteSpace=wrap;html=1;" parent="1" vertex="1">
                    <mxGeometry x="100" y="30" width="140" height="70" as="geometry"/>
                </mxCell>
            </root>
        </mxGraphModel>
    </diagram>
</mxfile>